<?xml version="1.0" standalone="no"?>
<!DOCTYPE svg PUBLIC "-//W3C//DTD SVG 20010904//EN"
 "http://www.w3.org/TR/2001/REC-SVG-20010904/DTD/svg10.dtd">
<svg version="1.0" xmlns="http://www.w3.org/2000/svg"
 width="812.000000pt" height="682.000000pt" viewBox="0 0 812.000000 682.000000"
 preserveAspectRatio="xMidYMid meet">

<g transform="translate(0.000000,682.000000) scale(0.100000,-0.100000)"
fill="#000000" stroke="none">
<path d="M1535 6810 c-18 -29 25 -39 69 -16 22 11 24 15 11 20 -25 9 -73 7
-80 -4z"/>
<path d="M1697 6803 c-8 -22 -28 -55 -42 -66 -6 -5 -3 -7 7 -3 10 3 20 0 24
-6 5 -7 -5 -9 -30 -6 -20 2 -36 1 -36 -3 0 -10 23 -16 87 -24 51 -7 53 -6 63
21 9 23 13 26 21 14 8 -11 12 -12 16 -2 5 13 33 17 33 4 0 -4 9 -8 19 -9 21
-2 45 43 39 74 -3 15 -15 18 -77 21 -40 2 -78 -2 -85 -7 -9 -7 -16 -7 -23 0
-7 7 -12 5 -16 -8z m71 -34 c-2 -6 -8 -10 -13 -10 -5 0 -11 4 -13 10 -2 6 4
11 13 11 9 0 15 -5 13 -11z m-61 -21 c-3 -8 -6 -5 -6 6 -1 11 2 17 5 13 3 -3
4 -12 1 -19z"/>
<path d="M2004 6785 c0 -20 4 -34 11 -32 5 2 10 16 10 32 0 16 -5 30 -10 32
-7 2 -11 -12 -11 -32z"/>
<path d="M3435 6790 c10 -53 47 -172 51 -167 4 4 -46 190 -53 197 -3 3 -2 -11
2 -30z"/>
<path d="M4564 6805 c3 -9 0 -15 -9 -15 -8 0 -15 -7 -15 -15 0 -17 30 -34 49
-27 9 3 11 0 6 -7 -4 -7 -13 -10 -20 -7 -10 4 -12 -4 -8 -32 7 -48 43 -161 54
-168 12 -7 11 13 -2 38 -8 16 -8 19 1 13 7 -4 17 -1 22 6 8 12 9 11 5 -1 -5
-19 13 -37 36 -37 21 0 21 -2 2 61 -8 28 -24 86 -36 129 l-22 77 -35 0 c-26 0
-33 -3 -28 -15z m50 -118 c27 -65 29 -77 12 -71 -9 3 -16 17 -16 30 0 15 -6
24 -16 24 -11 0 -14 5 -10 16 3 9 6 20 6 25 0 18 10 8 24 -24z m-17 -49 c-3
-8 -6 -5 -6 6 -1 11 2 17 5 13 3 -3 4 -12 1 -19z"/>
<path d="M7004 6804 c3 -9 6 -19 6 -24 0 -5 10 -10 23 -12 17 -2 23 -11 25
-35 4 -36 -4 -40 -34 -19 -12 9 -23 11 -30 5 -8 -6 -17 -4 -28 6 -8 9 -29 21
-46 27 -27 9 -33 7 -50 -13 -19 -20 -19 -24 -4 -40 9 -11 38 -21 70 -25 54 -6
69 -16 162 -99 45 -40 54 -99 23 -148 -11 -19 -21 -44 -21 -56 0 -11 -4 -21
-10 -21 -5 0 -10 5 -10 10 0 6 -7 10 -15 10 -8 0 -15 -7 -15 -15 0 -8 -4 -15
-10 -15 -5 0 -10 5 -10 11 0 8 -5 7 -15 -1 -20 -17 -11 -44 32 -97 34 -41 40
-72 16 -80 -13 -5 -20 3 -64 65 -27 37 -35 42 -70 42 -41 0 -46 -8 -29 -41 8
-15 15 -17 29 -9 21 11 31 4 31 -21 0 -12 5 -16 15 -13 8 4 15 1 15 -4 0 -19
-57 -32 -163 -37 -42 -2 -86 -9 -97 -15 -12 -6 -28 -9 -38 -6 -9 3 -24 1 -32
-4 -9 -5 -19 -5 -27 2 -9 7 -17 7 -27 -1 -10 -9 -15 -8 -19 2 -8 22 -59 31
-69 13 -5 -8 -15 -13 -23 -10 -10 4 -18 -4 -25 -22 -9 -22 -13 -25 -20 -14 -8
13 -12 12 -24 -5 -14 -18 -15 -19 -16 -2 0 29 -20 9 -20 -21 -1 -25 -2 -26
-14 -9 -17 22 -30 7 -22 -26 3 -15 1 -13 -6 6 -7 15 -15 27 -20 27 -4 0 -8
-12 -8 -27 -1 -25 -2 -26 -11 -9 -9 15 -13 16 -20 5 -10 -15 -17 -8 -45 38
-10 16 -13 16 -28 4 -11 -9 -16 -24 -13 -38 3 -19 2 -21 -10 -11 -8 6 -21 24
-28 39 -13 24 -12 30 4 50 9 13 20 32 24 42 3 9 12 17 19 17 13 0 93 83 102
106 6 15 28 19 40 7 10 -11 66 -12 66 -3 0 5 -5 10 -12 12 -6 2 -11 21 -10 44
2 41 -26 134 -40 134 -17 0 -88 -41 -88 -50 0 -6 -5 -10 -12 -10 -18 0 -102
-97 -128 -149 -13 -25 -27 -53 -31 -61 -5 -8 -13 -25 -19 -37 -27 -64 -34 11
-11 127 22 110 32 182 27 187 -3 4 -6 -1 -6 -10 0 -9 -18 -25 -40 -36 l-41
-20 7 22 c3 12 10 26 15 31 5 6 1 18 -11 31 -13 14 -20 38 -22 75 l-3 55 62
30 c68 33 98 55 73 55 -8 0 -55 -7 -105 -15 -54 -9 -111 -13 -144 -9 -32 4
-52 3 -48 -2 3 -6 -34 -11 -86 -12 -50 -1 -94 -6 -97 -12 -3 -6 -26 -16 -50
-23 l-43 -12 36 -25 c19 -13 34 -27 31 -31 -2 -3 5 -14 16 -24 11 -10 17 -22
14 -26 -3 -5 -1 -9 5 -9 5 0 12 6 14 13 4 10 6 10 6 0 1 -7 7 -13 15 -13 8 0
20 -13 28 -30 7 -16 17 -30 22 -30 6 0 2 -6 -8 -13 -9 -7 -16 -17 -14 -22 4
-12 -7 -16 -26 -9 -8 3 -29 4 -47 2 -29 -2 -37 -10 -54 -45 -11 -23 -36 -54
-55 -68 -19 -14 -35 -31 -35 -38 0 -7 -11 -14 -25 -17 -15 -3 -25 -12 -25 -22
0 -9 -4 -20 -8 -24 -4 -4 -7 2 -7 14 0 25 -25 30 -34 6 -8 -20 -28 -7 -22 14
3 10 1 24 -4 32 -6 10 -10 11 -10 3 0 -8 -14 -13 -35 -13 -23 0 -35 5 -35 14
0 7 -9 16 -20 19 -15 4 -20 14 -20 40 0 20 -5 37 -12 39 -17 6 -48 -28 -48
-52 0 -10 -11 -30 -25 -44 -21 -21 -54 -93 -55 -120 0 -9 31 -4 63 9 15 6 17
3 14 -27 -2 -18 -7 -40 -11 -47 -5 -7 -3 -18 3 -24 7 -7 13 -4 20 14 11 26 10
28 16 -52 1 -28 25 -48 54 -47 16 1 33 -2 39 -5 5 -4 25 7 43 24 26 24 38 29
58 24 27 -7 51 -8 86 -3 39 6 19 -44 -42 -101 -32 -30 -57 -57 -56 -61 1 -5
-9 -11 -22 -14 -14 -4 -25 -13 -25 -20 0 -8 -10 -17 -22 -19 -23 -4 -23 -4 1
-6 19 -1 22 -5 17 -25 -10 -39 2 -58 27 -44 30 15 52 40 52 58 0 8 18 21 40
29 22 8 45 21 50 28 26 34 281 9 267 -25 -3 -10 -1 -13 6 -8 19 12 14 -9 -13
-48 -23 -34 -65 -114 -65 -124 0 -3 23 -2 51 1 28 4 58 2 67 -3 9 -5 52 -17
95 -26 101 -21 138 -56 85 -81 -113 -54 -222 -74 -263 -48 -12 7 -30 14 -40
17 -11 2 -20 10 -20 18 -1 8 -7 14 -14 12 -8 -2 -43 -7 -80 -12 -36 -5 -91
-19 -121 -31 -63 -25 -140 -35 -140 -18 0 16 -42 0 -70 -29 -31 -30 -67 -45
-86 -34 -12 7 -9 15 15 43 17 19 31 37 31 41 0 10 -43 -4 -58 -19 -7 -7 -20
-13 -27 -13 -8 0 -26 -11 -41 -25 -15 -14 -40 -36 -56 -48 -15 -12 -28 -28
-28 -35 0 -8 -15 -32 -34 -55 -19 -23 -38 -58 -43 -77 -8 -31 -13 -35 -48 -38
-22 -1 -42 -8 -46 -14 -10 -16 -42 10 -35 29 6 16 -3 43 -14 43 -5 0 -11 -13
-15 -29 -14 -66 -65 -40 -66 33 0 61 -20 109 -51 124 -15 7 -34 30 -44 53 -10
22 -23 38 -30 35 -6 -2 -24 9 -40 25 -15 16 -34 29 -41 29 -7 0 -19 12 -27 28
-18 35 -47 67 -66 75 -10 4 -11 6 -2 6 7 1 11 5 7 11 -3 5 -13 6 -21 3 -9 -3
-28 4 -44 16 -37 27 -44 27 -58 -5 -12 -26 -2 -64 18 -64 5 0 17 -14 27 -30 9
-17 26 -33 38 -36 11 -4 32 -15 47 -25 14 -11 33 -17 41 -14 15 6 29 -20 46
-90 19 -80 -1 -145 -44 -145 -19 0 -25 -5 -25 -22 0 -18 2 -20 9 -9 8 12 12
12 25 2 17 -14 80 -33 109 -32 10 0 27 -15 37 -32 11 -18 23 -30 27 -27 12 8
15 -82 4 -93 -6 -6 -11 -23 -11 -38 0 -15 -4 -31 -10 -34 -5 -3 -10 -15 -10
-26 0 -10 -5 -19 -12 -19 -9 0 -9 -3 -1 -11 6 -6 8 -30 5 -55 -3 -28 -1 -44 6
-44 8 0 9 -11 5 -32 -5 -24 -3 -29 7 -23 8 5 11 4 6 -3 -11 -18 -36 -2 -36 23
0 29 -13 38 -51 37 -33 -1 -85 45 -95 84 -3 13 -10 24 -15 24 -5 0 -9 8 -9 18
0 10 -5 23 -12 30 -9 9 -9 12 2 12 9 0 6 6 -8 16 -12 8 -22 20 -22 25 0 5 -9
19 -20 31 -11 12 -20 28 -20 35 0 15 -43 28 -66 19 -23 -9 -65 23 -81 62 -13
31 -12 36 3 53 23 25 72 50 79 39 3 -4 2 -15 -1 -23 -6 -18 32 -61 41 -47 4 6
17 10 30 10 17 0 23 4 19 14 -3 8 3 19 16 26 l21 11 -23 28 c-13 16 -31 43
-40 60 -16 29 -20 31 -56 25 -46 -7 -50 -3 -53 57 -1 24 -9 52 -16 61 -8 9
-18 31 -23 50 -4 18 -9 39 -11 47 -3 8 6 14 25 16 38 5 40 8 22 43 -9 17 -17
45 -18 64 -3 33 -3 33 39 32 38 -1 41 1 32 19 -6 10 -8 21 -5 24 3 3 -6 26
-19 52 -14 25 -25 51 -25 57 0 6 -11 21 -24 33 -22 20 -25 21 -40 6 -12 -13
-15 -30 -12 -75 6 -84 -7 -85 -81 -7 -44 46 -70 147 -38 147 18 0 20 27 3 33
-7 2 -1 4 13 4 28 1 79 38 79 59 0 6 14 14 30 18 27 5 30 10 30 41 0 32 3 36
23 33 18 -2 23 -10 25 -47 2 -30 -2 -49 -14 -62 -20 -22 -12 -58 10 -40 11 9
12 7 9 -11 -4 -19 0 -23 22 -24 36 -2 52 32 36 77 -6 18 -9 35 -6 37 3 3 5 0
5 -8 0 -10 3 -10 15 0 8 6 18 9 23 6 8 -5 38 -6 148 -6 23 0 37 29 24 50 -21
35 14 44 50 15 8 -7 34 -12 57 -12 23 1 45 -1 48 -5 3 -3 3 -22 0 -42 -6 -31
-10 -34 -26 -25 -10 5 -19 19 -19 29 0 12 -7 20 -17 20 -12 0 -14 -3 -7 -8 7
-4 10 -24 8 -46 -2 -21 -1 -36 3 -33 3 4 20 0 38 -8 19 -7 36 -11 39 -8 3 4
15 -2 27 -13 l21 -19 -2 70 c-3 73 7 135 21 135 4 0 20 -5 34 -10 26 -10 27
-9 21 15 -4 14 -2 25 4 25 5 0 10 -5 10 -10 0 -6 10 -8 23 -5 18 5 24 0 34
-25 13 -35 28 -39 36 -10 4 16 14 20 46 20 26 0 43 -5 49 -16 11 -20 21 -8 50
63 29 69 28 80 -10 88 -26 6 -34 3 -49 -16 -14 -18 -19 -20 -19 -8 0 10 -12
19 -31 23 -57 11 -79 7 -88 -16 l-8 -22 -23 27 c-18 20 -26 24 -37 16 -9 -9
-17 -8 -27 0 -10 8 -16 9 -21 1 -9 -15 -42 -12 -69 5 -17 11 -49 16 -105 16
-89 0 -96 9 -26 30 45 13 58 37 17 31 -12 -2 -22 1 -22 6 0 11 -77 62 -84 54
-3 -3 -6 -14 -6 -24 0 -21 -39 -40 -56 -27 -13 11 -44 1 -44 -13 0 -6 -16 -8
-37 -5 -31 3 -48 -2 -88 -28 -28 -18 -70 -38 -94 -45 -39 -10 -44 -10 -58 9
-14 21 -71 30 -87 14 -4 -4 -31 -8 -59 -8 l-52 0 3 -35 c2 -19 8 -40 13 -46 5
-6 6 -14 2 -18 -4 -4 -9 -19 -11 -34 -4 -34 -6 -35 -45 -35 -17 0 -38 -4 -45
-10 -16 -13 -29 3 -39 46 -4 22 -11 27 -34 27 -16 0 -29 5 -29 10 0 6 -4 10
-10 10 -5 0 -10 -9 -10 -20 0 -40 -54 -43 -163 -10 -28 8 -42 8 -51 1 -10 -8
-17 -7 -26 4 -9 11 -22 14 -44 9 -35 -8 -52 -23 -58 -50 -2 -13 -10 -18 -25
-16 -17 2 -22 -4 -27 -42 -4 -25 -11 -48 -15 -50 -4 -3 -6 -23 -4 -45 2 -23
-1 -41 -5 -41 -5 0 -30 21 -57 48 -27 26 -59 48 -72 49 -14 1 -35 14 -47 28
-23 27 -56 26 -56 -1 0 -8 -7 -14 -15 -14 -9 0 -17 -6 -19 -12 -3 -7 -14 -46
-25 -85 -14 -48 -27 -73 -36 -73 -17 0 -19 -21 -6 -67 12 -43 -9 -114 -38
-129 -12 -6 -28 -19 -35 -29 -7 -10 -18 -15 -23 -12 -14 9 -20 -9 -29 -73 -7
-51 9 -93 43 -113 7 -4 13 -14 13 -20 0 -7 9 -30 20 -51 10 -22 17 -43 14 -48
-3 -5 -1 -14 4 -21 11 -15 12 -77 0 -77 -4 0 -8 -7 -8 -16 0 -8 -4 -12 -10 -9
-6 4 -10 -8 -10 -30 0 -22 4 -34 10 -30 6 3 10 -1 10 -10 0 -12 -6 -15 -20
-10 -20 6 -28 -9 -10 -20 16 -10 12 -87 -6 -106 -19 -21 -11 -40 34 -82 21
-20 41 -29 68 -30 55 -3 78 -18 69 -46 -5 -18 -12 -21 -32 -16 -14 3 -31 1
-39 -5 -10 -9 -21 -8 -45 4 -22 11 -36 13 -49 6 -10 -6 -25 -8 -33 -5 -7 3
-38 -6 -67 -21 -37 -19 -67 -26 -101 -25 -29 0 -74 -9 -116 -25 -37 -14 -95
-35 -128 -46 -33 -12 -65 -27 -72 -34 -7 -7 -39 -22 -70 -34 -31 -12 -61 -24
-67 -28 -19 -12 -100 -31 -136 -32 -31 -1 -33 -2 -17 -14 23 -18 22 -32 -7
-63 -22 -24 -23 -28 -9 -38 12 -9 13 -14 4 -19 -6 -4 -9 -12 -6 -17 4 -5 2 -9
-3 -9 -12 0 -42 34 -42 48 0 16 -15 15 -29 -1 -8 -10 -7 -17 1 -25 13 -13 1
-20 -46 -24 -25 -3 -29 1 -32 25 -2 23 3 31 32 44 37 18 44 33 17 33 -31 1
-56 26 -48 49 3 12 11 21 16 21 5 0 27 17 48 38 48 45 60 55 92 73 l24 13 -35
6 c-32 4 -35 8 -35 37 0 25 -5 33 -22 38 -26 6 -31 33 -7 42 16 6 39 50 35 69
0 6 5 17 13 23 8 6 12 20 9 30 -3 14 9 26 51 50 39 21 56 37 56 51 0 11 5 20
10 20 6 0 10 7 10 16 0 12 5 14 17 9 10 -4 30 -10 46 -13 15 -2 30 -8 33 -13
8 -14 31 -11 37 5 10 24 -16 66 -40 66 -12 0 -25 4 -28 10 -3 5 -25 14 -48 20
-72 19 -100 32 -85 41 10 7 10 9 -2 9 -12 1 -11 3 3 11 9 6 26 8 36 4 11 -3
25 2 36 15 16 17 26 19 111 13 94 -6 116 -1 69 17 -18 7 -25 17 -25 35 0 14
-7 28 -15 31 -24 10 -17 34 10 34 18 0 23 4 19 15 -4 9 0 15 10 15 13 0 15 11
12 68 -4 79 -23 94 -50 37 -14 -30 -22 -35 -50 -35 -19 0 -47 -7 -62 -15 -16
-8 -37 -12 -46 -9 -10 3 -18 1 -18 -5 0 -6 -8 -11 -18 -11 -21 0 -46 -53 -39
-81 4 -16 2 -19 -16 -13 -12 3 -32 13 -45 21 -22 14 -23 13 -13 -5 14 -27 -17
-91 -44 -92 -12 0 -38 -9 -60 -20 -22 -11 -45 -20 -51 -20 -7 0 -15 -7 -18
-16 -3 -8 -11 -12 -16 -9 -7 4 -9 -2 -4 -19 5 -21 3 -26 -12 -26 -10 0 -33
-14 -51 -32 -23 -23 -43 -32 -66 -33 -25 0 -35 -6 -45 -27 -7 -16 -20 -28 -28
-28 -8 0 -14 -10 -14 -25 0 -14 -9 -30 -20 -37 -11 -7 -20 -20 -20 -29 0 -9
-9 -28 -20 -41 -11 -14 -24 -38 -30 -52 -5 -15 -20 -30 -32 -35 -18 -7 -20
-10 -8 -15 17 -7 26 -86 11 -86 -18 0 -31 26 -19 38 16 16 -27 16 -71 1 -37
-13 -40 -26 -7 -39 29 -11 37 -28 23 -55 -13 -27 -28 -36 -49 -29 -15 4 -18
-1 -18 -26 0 -18 -6 -33 -15 -36 -26 -10 -18 -43 13 -50 34 -8 82 -52 82 -76
0 -10 -4 -18 -10 -18 -5 0 -16 -13 -25 -30 -9 -16 -22 -30 -31 -30 -8 0 -12
-5 -9 -10 4 -6 -4 -19 -18 -30 -18 -14 -23 -26 -19 -48 3 -25 0 -30 -22 -36
-22 -5 -25 -10 -20 -31 4 -15 2 -25 -4 -25 -17 0 -72 -63 -72 -82 0 -9 -5 -20
-10 -23 -6 -3 -10 -17 -10 -30 0 -13 -5 -27 -10 -30 -6 -4 -8 -11 -5 -16 4 -5
0 -16 -8 -24 -8 -8 -18 -34 -21 -59 -4 -25 -11 -48 -17 -51 -16 -10 -11 -48 6
-41 8 3 15 1 15 -3 0 -5 16 -5 35 -1 19 4 35 5 35 2 0 -10 44 41 57 65 9 17 8
24 -5 36 -10 8 -26 17 -37 19 -33 6 -29 34 7 49 35 15 40 16 76 18 17 1 27 10
35 31 9 25 17 30 43 30 30 0 31 -2 28 -37 -1 -25 -7 -38 -16 -37 -9 1 -13 -11
-13 -39 0 -23 -6 -42 -13 -45 -6 -2 -12 -8 -12 -14 0 -6 6 -8 13 -5 7 3 24 -4
38 -14 13 -10 27 -19 31 -19 16 0 47 -39 37 -46 -6 -3 -16 -1 -22 5 -14 14
-27 14 -27 1 0 -5 6 -10 14 -10 7 0 19 -6 26 -14 6 -8 21 -17 33 -19 18 -3 16
-5 -6 -6 -17 0 -26 -5 -22 -11 4 -6 -5 -20 -19 -31 -14 -11 -26 -27 -26 -35 0
-8 -7 -17 -15 -20 -11 -5 -14 -16 -10 -46 3 -23 1 -46 -4 -52 -4 -6 -9 -25 -9
-42 0 -17 -14 -51 -32 -77 -24 -35 -29 -53 -24 -69 5 -13 7 -27 6 -32 -2 -4 2
-14 8 -21 6 -7 8 -19 4 -28 -6 -16 29 -42 45 -33 5 3 14 -1 21 -9 10 -12 17
-11 51 10 55 35 82 33 72 -6 -3 -10 -12 -19 -19 -19 -8 0 -14 -4 -14 -10 0 -5
8 -10 18 -10 13 0 14 -2 4 -9 -11 -7 -12 -12 -1 -29 7 -11 21 -23 31 -25 15
-4 17 -12 13 -48 -3 -24 -7 -44 -8 -46 -2 -1 -21 -3 -42 -4 -22 -1 -46 -7 -54
-13 -10 -8 -15 -8 -18 2 -3 6 -11 12 -18 12 -22 0 -61 -43 -57 -62 5 -23 42
-24 42 -1 0 15 1 15 18 0 10 -10 28 -17 39 -17 11 0 22 -3 26 -6 11 -11 -5
-34 -24 -34 -27 0 -24 -25 6 -44 28 -18 52 -21 57 -5 2 5 22 13 46 16 23 3 42
8 42 10 0 3 -11 14 -24 24 -19 15 -23 24 -17 46 11 40 58 50 105 22 20 -11 36
-24 36 -27 -1 -16 -28 -42 -44 -42 -18 0 -21 -11 -6 -26 17 -17 -44 -74 -79
-74 -16 0 -33 -4 -36 -10 -10 -17 -75 -12 -75 5 0 11 -11 15 -35 15 -28 0 -37
-5 -44 -22 -9 -24 -2 -59 19 -97 7 -15 8 -26 2 -34 -6 -7 -10 -23 -9 -37 0
-14 -1 -29 -2 -35 -9 -30 0 -65 17 -65 9 0 24 -5 32 -10 13 -8 13 -11 -3 -22
-10 -7 -20 -31 -24 -53 -3 -22 -11 -44 -17 -48 -8 -6 -8 -10 0 -13 6 -3 19
-11 29 -18 17 -12 16 -15 -10 -59 -15 -26 -31 -47 -36 -47 -5 0 -9 -4 -9 -9 0
-4 12 -7 27 -5 35 4 47 -4 32 -22 -9 -11 -6 -22 10 -49 15 -27 18 -41 11 -54
-13 -25 -2 -32 39 -25 34 5 35 4 17 -10 -11 -9 -23 -16 -27 -16 -13 0 -31 -69
-33 -122 -1 -51 -6 -59 -51 -73 -16 -5 -17 -8 -5 -16 13 -8 13 -10 0 -19 -20
-14 -60 -24 -66 -17 -4 3 -2 12 2 19 20 30 32 78 21 85 -5 3 -7 2 -4 -3 3 -6
2 -16 -3 -24 -8 -13 -11 -13 -22 -1 -10 11 -10 14 0 18 19 7 14 30 -8 36 -20
5 -21 11 -15 108 3 57 10 106 15 109 6 4 8 14 4 23 -4 12 -1 17 11 17 9 0 14
4 11 8 -3 5 -18 7 -35 4 -22 -3 -32 1 -40 17 -13 24 -32 24 -416 -4 -110 -8
-249 -15 -310 -15 -60 0 -159 -4 -220 -10 -60 -5 -158 -10 -217 -12 l-108 -3
0 -1163 0 -1163 38 3 c32 3 37 6 34 26 -2 19 2 22 17 17 11 -3 22 -1 26 5 3 6
-3 10 -15 10 -12 0 -19 4 -15 9 3 5 -5 12 -17 14 -13 3 -4 3 19 1 23 -2 45 1
48 6 3 6 21 10 40 10 28 0 32 -3 28 -20 -3 -11 -2 -28 2 -37 5 -10 7 -24 6
-30 -1 -10 145 -13 707 -13 l709 0 11 25 c10 21 9 25 -3 25 -17 0 -20 16 -5
25 20 13 9 25 -22 25 l-33 1 30 26 c16 14 30 32 30 40 0 7 6 18 14 23 12 7 8
14 -18 35 -23 20 -30 33 -25 47 5 17 3 19 -15 13 -30 -9 -27 13 4 25 30 12 31
16 4 31 -15 8 -19 8 -15 0 4 -6 3 -11 -2 -11 -22 0 -20 31 2 45 24 16 42 55
25 55 -24 0 -48 132 -29 156 6 6 10 22 10 35 -1 73 2 94 12 107 9 10 9 15 -1
22 -11 6 -11 16 2 54 15 44 15 46 -4 59 -15 11 -18 21 -13 46 4 17 11 34 15
37 17 10 -2 24 -32 24 l-31 0 35 40 c22 26 34 51 35 72 0 17 7 35 14 39 7 5 9
9 5 9 -12 0 20 30 32 30 6 0 11 6 11 13 0 9 3 8 9 -2 13 -21 33 -3 25 22 -8
25 -37 49 -71 59 -28 8 -29 1 -3 -32 19 -25 19 -25 -2 -47 -27 -29 -49 -20
-41 18 6 29 -10 41 -20 15 -6 -15 -55 -28 -62 -16 -3 4 2 13 10 20 8 7 15 23
15 36 0 14 6 24 14 24 22 0 27 27 5 33 -22 6 -26 27 -5 27 8 0 18 5 22 12 4 6
3 8 -4 5 -16 -11 -42 3 -42 23 0 11 5 22 10 25 16 10 12 65 -4 65 -8 0 -21 9
-29 21 -11 15 -23 20 -47 17 -33 -3 -63 23 -46 39 5 4 11 3 13 -3 6 -16 83 22
83 41 0 22 42 18 68 -5 24 -23 26 -28 12 -50 -6 -9 -5 -19 3 -28 9 -11 7 -17
-6 -27 -9 -7 -17 -24 -17 -39 0 -23 3 -26 20 -21 32 10 60 -4 60 -30 0 -13 -4
-27 -10 -30 -16 -10 -12 -35 5 -29 9 4 15 0 15 -7 0 -12 2 -12 9 0 7 10 10 10
16 1 4 -7 2 -16 -5 -20 -19 -12 -2 -52 19 -45 20 6 81 -40 81 -62 0 -7 11 -18
24 -24 14 -7 22 -17 19 -25 -3 -8 1 -14 10 -14 9 0 18 -4 22 -10 6 -10 -29
-50 -45 -50 -5 0 -10 -7 -10 -15 0 -8 -13 -24 -29 -36 -19 -14 -27 -27 -24
-40 3 -11 0 -26 -7 -34 -8 -10 -9 -15 -2 -15 6 0 14 5 17 10 4 7 17 4 36 -7
33 -19 34 -25 16 -53 -16 -27 5 -42 48 -35 20 4 38 -1 55 -14 22 -18 23 -21
10 -45 -11 -21 -21 -26 -50 -26 -47 0 -74 -27 -68 -69 2 -17 0 -33 -6 -36 -6
-3 15 -3 46 -2 l57 4 -32 -34 c-17 -18 -37 -33 -44 -33 -7 0 -34 -20 -60 -45
-26 -24 -63 -55 -81 -69 l-32 -23 52 -6 c29 -3 57 -1 62 4 6 5 23 9 40 9 l29
0 -23 25 c-12 13 -27 22 -31 19 -5 -3 -9 -3 -9 0 0 11 93 47 107 42 24 -10 11
-41 -20 -44 -15 -2 -27 -8 -27 -13 0 -7 26 -8 71 -3 l71 7 -7 -24 c-9 -32 -64
-78 -92 -79 -13 0 -23 -4 -23 -9 0 -5 9 -7 20 -4 27 7 27 -23 -1 -38 l-21 -11
22 -15 c18 -13 27 -14 41 -5 10 6 21 8 23 3 3 -5 -17 -21 -46 -36 -38 -20 -61
-26 -85 -22 -37 6 -40 1 -18 -30 12 -17 22 -21 49 -16 19 3 36 1 40 -6 4 -6
18 -11 32 -11 13 0 24 -4 24 -10 0 -5 -4 -10 -10 -10 -5 0 -10 -6 -10 -14 0
-9 -12 -16 -32 -18 -30 -3 -31 -4 -14 -20 15 -16 15 -18 2 -18 -17 0 -19 -11
-10 -59 l7 -31 158 0 c99 0 159 4 159 10 0 6 9 10 20 10 11 0 20 -4 20 -10 0
-7 945 -10 2815 -10 1834 0 2815 3 2815 10 0 5 -12 12 -27 15 -31 7 -65 20
-137 56 -105 52 -129 67 -157 97 -18 19 -40 32 -55 32 -27 0 -43 25 -27 41 6
6 41 22 79 35 38 14 94 43 125 64 31 21 74 42 95 46 22 5 42 9 47 10 4 1 13 2
21 3 7 0 31 13 52 27 36 25 95 37 252 54 2 0 0 4 -3 10 -3 5 -1 10 4 10 8 0
11 424 11 1410 0 776 -4 1410 -8 1410 -5 0 -22 11 -38 25 -16 14 -33 25 -37
25 -4 0 -19 12 -32 26 -19 20 -25 38 -25 71 0 37 4 45 25 53 14 5 25 16 25 23
0 8 11 19 25 25 15 7 25 20 25 32 0 11 3 20 8 20 4 0 13 13 20 29 9 21 12 94
10 282 l-3 254 -32 -50 c-18 -28 -50 -69 -72 -92 -23 -23 -41 -45 -41 -47 0
-3 -15 -29 -33 -58 -19 -29 -44 -74 -56 -100 -21 -44 -26 -48 -59 -48 -21 0
-41 4 -47 8 -16 12 -35 50 -35 72 0 11 -6 20 -14 20 -13 0 -28 22 -30 45 -2
16 -92 95 -108 95 -9 0 -18 13 -21 30 -4 17 -13 30 -21 30 -19 0 -82 73 -67
78 6 2 11 10 11 18 0 8 6 14 13 14 12 1 52 48 45 55 -1 2 -25 -1 -53 -6 -30
-6 -51 -6 -53 0 -2 5 -11 7 -20 4 -13 -3 -21 6 -31 32 -11 33 -11 38 6 51 23
17 72 30 146 38 54 6 58 5 69 -19 6 -13 19 -27 28 -30 9 -3 70 22 136 54 121
61 229 101 274 101 14 0 36 3 49 7 23 6 23 7 16 97 -4 50 -7 123 -6 161 1 39
4 299 7 579 l5 509 -22 23 c-13 13 -26 24 -31 24 -14 0 -88 77 -88 92 0 7 -10
25 -23 40 -14 16 -22 37 -21 55 1 15 3 38 3 50 1 12 7 27 14 33 6 6 24 20 38
33 14 12 49 40 77 62 l51 40 1 134 c0 117 -2 132 -16 127 -9 -3 -19 -6 -23 -6
-20 0 -111 -106 -111 -129 0 -6 -5 -17 -10 -24 -18 -21 -60 -87 -79 -125 -22
-43 -57 -77 -88 -86 -16 -5 -26 0 -42 23 -12 16 -21 33 -21 38 0 5 -14 24 -31
42 -33 37 -44 60 -59 127 -15 68 12 301 45 387 7 16 -13 17 -340 17 -312 0
-347 -2 -341 -16z m-2514 -444 c0 -5 -2 -10 -4 -10 -3 0 -8 5 -11 10 -3 6 -1
10 4 10 6 0 11 -4 11 -10z m2604 -25 c8 -8 19 -15 25 -15 6 0 11 -4 11 -8 0
-10 -27 -8 -52 3 -19 7 -25 35 -9 35 5 0 16 -7 25 -15z m-3733 -228 c-1 -4 -1
-14 -1 -22 0 -8 -4 -15 -10 -15 -5 0 -10 12 -10 26 0 14 5 24 11 22 6 -2 10
-7 10 -11z m59 -67 c0 -5 -4 -10 -10 -10 -5 0 -10 5 -10 10 0 6 5 10 10 10 6
0 10 -4 10 -10z m110 -42 c0 -13 -5 -30 -10 -38 -7 -11 -10 -5 -10 23 0 20 5
37 10 37 6 0 10 -10 10 -22z m-30 -51 c20 -15 60 -84 60 -102 0 -7 -9 -17 -20
-20 -11 -3 -20 -11 -20 -16 0 -12 17 -12 25 1 3 6 11 10 18 10 8 0 8 -3 -1
-12 -7 -7 -12 -23 -12 -37 -1 -23 -2 -24 -13 -9 -12 15 -14 15 -25 -3 -7 -10
-12 -28 -12 -40 0 -21 -1 -21 -19 -5 -16 15 -19 15 -31 1 -10 -12 -10 -18 0
-30 11 -14 7 -19 -12 -16 -5 0 -8 -17 -8 -40 0 -25 4 -38 10 -34 6 4 8 10 5
15 -3 4 2 11 11 14 8 3 13 2 10 -3 -3 -5 1 -14 9 -21 12 -10 15 -9 15 6 1 11
7 1 15 -21 8 -21 13 -39 12 -40 -1 0 -12 -5 -23 -12 -17 -9 -27 -9 -47 2 -13
7 -30 9 -37 5 -7 -5 -18 -6 -24 -4 -18 7 -36 -55 -36 -119 0 -48 -3 -57 -18
-57 -10 0 -26 9 -35 21 -11 12 -25 18 -33 15 -9 -3 -35 6 -59 20 -41 24 -44
24 -54 7 -9 -16 -10 -16 -11 -2 0 9 -23 41 -51 70 -44 47 -51 52 -60 37 -14
-24 13 -74 50 -93 16 -8 32 -24 36 -35 3 -11 11 -20 16 -20 7 0 8 -12 4 -30
-4 -19 -3 -30 4 -30 15 0 14 -12 -3 -35 -14 -19 -15 -19 -35 -1 -12 11 -21 24
-21 31 0 7 -18 19 -40 28 -23 9 -40 22 -40 31 0 23 -34 85 -46 86 -16 0 -12
94 5 114 7 8 10 20 6 26 -4 6 -2 17 5 25 9 10 9 19 0 35 -6 12 -9 24 -6 27 3
3 -1 15 -9 26 -9 12 -11 25 -5 36 5 9 15 31 22 49 15 37 22 39 45 13 18 -22
35 -19 26 4 -6 17 22 21 32 5 3 -6 17 -7 31 -4 20 5 26 2 31 -15 6 -24 21 -26
58 -9 16 7 25 19 25 34 0 13 4 25 10 29 5 3 7 12 3 20 -4 11 -1 13 11 9 9 -3
16 -12 16 -19 0 -16 46 -25 59 -12 7 7 15 6 24 -1 10 -9 17 -8 26 1 16 16 27
-3 35 -64 5 -33 11 -49 21 -49 8 0 15 9 15 20 0 11 6 20 13 20 8 0 8 3 -2 9
-12 8 -11 16 3 53 10 23 22 48 27 54 6 7 2 17 -11 29 -32 29 -4 49 30 22z
m-72 -5 c9 -7 8 -13 -8 -27 -26 -23 -52 -6 -30 20 14 17 20 18 38 7z m-388
-72 c0 -5 -5 -10 -11 -10 -5 0 -7 5 -4 10 3 6 8 10 11 10 2 0 4 -4 4 -10z
m3627 -72 c-1 -14 4 -23 12 -23 8 0 18 -13 23 -30 5 -16 12 -36 14 -44 5 -16
38 31 46 65 4 17 6 16 15 -6 7 -17 7 -29 1 -37 -8 -10 -6 -13 7 -13 16 0 17
-2 3 -17 -8 -10 -20 -37 -28 -60 -7 -24 -19 -43 -26 -43 -8 0 -21 -11 -29 -24
-22 -33 -53 -39 -77 -16 -11 10 -17 23 -14 29 4 6 -1 19 -11 29 -10 11 -27 31
-38 45 -11 13 -23 23 -28 20 -4 -2 -10 2 -13 10 -7 20 23 77 41 77 8 0 15 5
15 10 0 6 7 10 15 10 8 0 23 9 32 20 23 27 43 26 40 -2z m-282 -8 c3 -5 1 -10
-4 -10 -6 0 -11 5 -11 10 0 6 2 10 4 10 3 0 8 -4 11 -10z m-105 -28 c0 -5 -11
-14 -25 -20 -29 -13 -31 -10 -9 12 17 17 34 21 34 8z m608 -65 c2 -15 -1 -34
-7 -44 -9 -16 -10 -16 -11 4 0 12 -8 26 -17 32 -15 8 -15 11 -4 25 19 22 35
15 39 -17z m-78 -22 c0 -8 -4 -15 -10 -15 -5 0 -10 7 -10 15 0 8 5 15 10 15 6
0 10 -7 10 -15z m152 -53 c-5 -1 -7 -13 -4 -25 5 -20 4 -20 -11 -8 -17 14 -23
42 -10 54 3 4 13 1 21 -5 8 -7 10 -14 4 -16z m-2632 -1 c0 -6 -4 -13 -10 -16
-5 -3 -10 1 -10 9 0 9 5 16 10 16 6 0 10 -4 10 -9z m1964 -52 c27 -8 41 -8 49
0 13 13 47 15 47 2 0 -4 11 -6 25 -3 18 3 25 0 25 -12 0 -9 -7 -16 -16 -16 -9
0 -22 -7 -28 -15 -6 -9 -24 -17 -41 -19 -16 -2 -42 -9 -58 -15 -22 -9 -35 -7
-68 11 l-41 21 -62 -62 c-50 -50 -71 -64 -102 -68 -50 -6 -70 13 -57 54 7 20
17 28 36 30 15 1 29 -2 32 -8 10 -16 25 -10 18 8 -5 12 -2 15 9 10 11 -4 18 1
21 14 3 12 14 19 30 19 14 0 29 5 32 11 4 5 17 9 28 8 37 -2 61 1 54 8 -7 6
11 33 22 33 3 0 23 -5 45 -11z m206 -33 c0 -3 -4 -8 -10 -11 -5 -3 -10 -1 -10
4 0 6 5 11 10 11 6 0 10 -2 10 -4z m383 -41 c4 -8 2 -17 -3 -20 -6 -4 -10 3
-10 14 0 25 6 27 13 6z m-928 -25 c3 -5 0 -10 -9 -10 -8 0 -22 -3 -32 -7 -16
-6 -17 -5 -4 10 17 19 36 22 45 7z m-345 -146 c69 -30 85 -39 112 -66 15 -16
33 -28 40 -28 7 0 19 -15 27 -32 8 -18 21 -41 29 -50 19 -23 26 -165 9 -198
-7 -13 -26 -30 -43 -39 -17 -9 -48 -39 -69 -68 -21 -29 -43 -54 -50 -57 -15
-5 -50 29 -42 41 3 4 1 32 -3 61 -19 116 -110 236 -202 264 -83 26 -120 10
-143 -61 -7 -22 -5 -23 24 -19 30 4 32 3 35 -34 1 -8 -17 -15 -44 -18 l-45 -5
-3 -49 c-4 -57 10 -96 53 -151 17 -22 39 -53 49 -68 9 -16 26 -37 36 -47 26
-26 36 -80 16 -81 -25 -2 -29 -3 -62 -17 -23 -10 -30 -18 -27 -32 7 -27 -35
-50 -98 -52 -60 -2 -119 22 -119 48 0 21 -79 94 -96 87 -7 -2 -18 5 -24 17 -7
13 -8 20 -2 16 17 -11 23 47 12 117 -22 137 27 272 134 375 61 58 155 122 179
122 8 0 17 3 21 8 4 4 31 15 59 24 61 20 181 15 237 -8z m455 -85 c5 -5 24 -9
42 -9 l34 0 -34 -30 c-36 -31 -59 -36 -100 -21 -29 11 -64 61 -49 70 15 9 95
1 107 -10z m316 -36 c7 -20 7 -33 0 -45 -10 -16 -7 -18 19 -18 23 0 30 -5 30
-19 0 -22 -70 -101 -88 -101 -7 0 -15 -6 -18 -14 -3 -8 -34 -32 -68 -55 -35
-22 -75 -58 -91 -81 -15 -22 -31 -40 -35 -40 -17 0 -100 -83 -100 -101 0 -10
-7 -19 -15 -19 -8 0 -15 -5 -15 -10 0 -13 -101 -109 -114 -110 -6 0 -19 -9
-30 -19 -14 -13 -48 -22 -105 -30 -97 -13 -124 -3 -71 26 19 10 49 33 67 50
18 18 45 36 58 39 15 4 25 13 25 24 0 10 21 36 48 59 75 65 81 72 87 102 8 38
40 59 87 59 52 0 80 29 76 78 -3 34 -6 37 -38 42 -46 7 -53 40 -15 73 15 12
50 43 78 69 38 36 56 46 73 42 12 -3 25 -1 28 4 3 6 23 8 45 5 23 -3 41 -1 45
6 12 19 26 12 37 -16z m-2581 -39 c0 -8 8 -15 18 -15 16 -1 16 -2 0 -6 -10 -2
-18 -9 -18 -15 0 -23 -13 3 -17 33 -2 18 1 28 7 24 6 -3 10 -13 10 -21z m87
-130 c-3 -3 -12 -4 -19 -1 -8 3 -5 6 6 6 11 1 17 -2 13 -5z m-686 -31 c13 -34
-3 -53 -25 -30 -17 16 -21 39 -9 50 13 13 24 7 34 -20z m1546 -45 c6 -13 17
-39 24 -58 7 -19 20 -40 29 -47 13 -11 13 -12 -2 -13 -12 0 -18 -7 -17 -22 1
-17 2 -19 6 -5 10 39 34 1 38 -63 3 -32 -22 -87 -42 -94 -23 -9 -65 4 -55 18
23 28 22 84 -1 148 -28 73 -41 134 -32 148 11 18 41 10 52 -12z m-1307 -33 c0
-22 -2 -24 -14 -13 -10 9 -11 17 -4 26 15 17 18 15 18 -13z m2080 6 c10 -2 6
-46 -4 -53 -6 -4 -19 -8 -29 -8 -10 0 -30 -13 -44 -30 -28 -34 -44 -37 -67
-15 -11 11 -13 26 -9 48 10 54 27 65 91 62 31 -2 59 -3 62 -4z m-1840 -27 c0
-2 -7 -4 -15 -4 -8 0 -15 4 -15 10 0 5 7 7 15 4 8 -4 15 -8 15 -10z m138 -3
c7 -4 20 -20 28 -35 20 -40 3 -70 -37 -62 -25 5 -31 1 -41 -19 -12 -27 -52
-35 -61 -12 -8 20 4 68 18 74 7 2 19 18 25 34 13 29 40 38 68 20z m1032 0 c0
-12 -20 -25 -27 -18 -7 7 6 27 18 27 5 0 9 -4 9 -9z m-830 -57 c0 -8 6 -14 13
-14 7 0 12 -13 12 -30 0 -16 -4 -29 -10 -27 -5 1 -8 8 -7 16 2 9 -2 12 -12 8
-9 -4 -16 -3 -17 1 -8 49 -5 70 7 65 8 -3 14 -11 14 -19z m-477 -59 c5 -32
-14 -62 -32 -51 -14 9 -30 71 -24 95 5 19 6 20 28 3 13 -9 25 -30 28 -47z
m379 -14 c3 -20 0 -32 -9 -36 -8 -2 -12 -9 -8 -14 3 -6 12 -8 20 -4 10 3 15
-1 15 -12 0 -10 8 -24 18 -31 16 -12 16 -14 0 -41 -12 -20 -26 -29 -50 -31
-41 -4 -77 -33 -103 -87 -11 -22 -26 -44 -32 -48 -7 -4 -13 -14 -13 -22 0 -8
-6 -12 -14 -9 -8 3 -17 1 -21 -5 -12 -20 -22 -11 -18 17 3 15 11 48 20 74 17
54 12 68 -23 68 -30 0 -28 20 4 36 16 8 19 13 10 22 -8 8 -7 13 6 18 10 4 22
2 29 -5 13 -13 38 -15 35 -2 -4 13 52 62 63 56 5 -4 9 -15 9 -26 0 -12 7 -19
18 -19 24 0 34 10 23 24 -15 20 -22 104 -8 109 18 7 24 0 29 -32z m-497 -41
c-5 -17 -10 -19 -18 -11 -15 15 -16 34 -2 43 16 11 28 -8 20 -32z m2225 34 c0
-14 -22 -44 -30 -39 -13 8 0 45 16 45 8 0 14 -3 14 -6z m-2832 -33 c18 -10 53
-22 62 -22 3 0 15 -7 28 -15 13 -8 31 -14 40 -13 9 1 25 -1 35 -6 10 -4 20 -5
23 -2 11 11 160 -73 195 -110 73 -76 110 -144 113 -204 0 -14 7 -33 15 -43 13
-16 13 -26 -5 -137 -9 -53 -44 -93 -85 -95 -19 -1 -53 -5 -76 -9 -35 -6 -43
-5 -43 7 0 10 -12 15 -40 16 -22 1 -40 -3 -40 -8 0 -14 -26 -12 -38 3 -7 8 -4
33 8 79 9 36 20 85 24 107 6 38 5 41 -17 41 -15 0 -29 -9 -37 -25 -7 -14 -21
-25 -31 -25 -40 0 -66 84 -34 110 8 7 29 10 47 7 18 -2 43 -1 55 4 l22 8 -19
43 c-28 62 -92 132 -149 162 -67 35 -86 33 -113 -9 -13 -19 -29 -35 -36 -35
-12 0 -34 -42 -30 -58 1 -4 -6 -31 -15 -61 -26 -83 -22 -108 33 -213 28 -53
50 -103 50 -112 0 -9 4 -16 9 -16 10 0 24 -30 17 -37 -3 -3 -10 -2 -16 2 -6 4
-31 8 -56 10 -24 1 -60 12 -79 24 -37 22 -75 28 -75 12 0 -5 6 -12 13 -14 6
-3 0 -6 -15 -6 -14 -1 -51 13 -81 30 -46 27 -59 41 -83 92 -26 54 -29 70 -28
162 0 78 4 107 17 126 9 13 17 30 17 37 0 19 32 58 69 85 125 90 150 103 211
110 71 8 121 7 138 -2z m838 -29 c20 -17 44 -53 44 -66 0 -3 -7 -6 -15 -6 -8
0 -15 9 -15 20 0 15 -7 20 -26 20 -23 0 -25 2 -13 16 10 13 10 17 -2 25 -8 5
-9 9 -4 9 6 -1 19 -9 31 -18z m454 -26 c0 -7 -8 -20 -17 -27 -15 -12 -16 -12
-10 4 4 10 7 23 7 28 0 5 5 9 10 9 6 0 10 -6 10 -14z m3326 -21 c4 -11 18 -15
41 -13 39 3 53 -12 53 -57 0 -38 -27 -78 -47 -71 -8 3 -22 -2 -31 -13 -21 -23
-97 -48 -137 -45 -16 1 -42 3 -57 3 -39 1 -38 39 2 74 37 34 54 34 68 2 13
-28 24 -31 41 -11 17 20 60 29 77 16 15 -13 38 -4 29 11 -4 5 -15 9 -25 9 -10
0 -22 9 -25 20 -3 11 -12 20 -20 20 -14 0 -29 45 -20 60 10 16 45 12 51 -5z
m-3866 -31 c0 -8 -5 -12 -10 -9 -6 4 -8 11 -5 16 9 14 15 11 15 -7z m418 -4
c-7 -11 -15 -15 -17 -9 -2 6 3 15 10 20 20 12 21 11 7 -11z m-1888 -64 c0 -3
-4 -8 -10 -11 -5 -3 -10 -1 -10 4 0 6 5 11 10 11 6 0 10 -2 10 -4z m1549 -31
c8 -7 17 -34 21 -59 6 -44 6 -45 -19 -44 -14 0 -35 -3 -46 -6 -12 -4 -33 1
-52 13 -29 18 -32 24 -26 53 11 62 20 71 66 64 23 -4 48 -13 56 -21z m-1309
-23 c0 -16 -3 -63 -6 -105 -6 -66 -10 -77 -25 -77 -27 0 -52 55 -46 101 10 78
77 147 77 81z m464 3 c-4 -8 -1 -15 6 -15 6 0 8 -4 5 -10 -12 -19 -33 -10 -37
15 -4 19 -1 25 13 25 12 0 16 -5 13 -15z m1096 -10 c0 -4 -7 -19 -15 -34 -11
-22 -23 -30 -50 -33 -19 -2 -35 -3 -35 -3 0 1 15 18 33 38 27 31 67 50 67 32z
m138 -28 c14 5 15 -7 3 -40 -18 -46 -104 -40 -93 7 2 12 14 31 25 43 19 22 21
22 36 4 9 -10 22 -16 29 -14z m1596 -31 c21 -3 40 -7 42 -9 10 -9 -59 -57 -82
-57 -19 0 -24 5 -24 24 0 14 -5 28 -10 31 -16 10 -1 27 18 21 10 -3 34 -8 56
-10z m-3468 -24 c15 -9 44 -67 44 -87 0 -22 -62 -20 -91 5 -13 11 -18 19 -11
20 7 0 12 6 11 13 0 6 2 22 6 35 7 22 21 27 41 14z m5528 -31 c3 -5 -3 -11
-14 -14 -20 -5 -26 3 -13 16 9 10 21 9 27 -2z m-44 -21 c0 -5 -5 -10 -11 -10
-5 0 -7 5 -4 10 3 6 8 10 11 10 2 0 4 -4 4 -10z m-2260 -41 c0 -11 11 -24 25
-31 33 -15 32 -38 -2 -38 -14 0 -23 3 -20 7 8 7 -11 33 -24 33 -5 0 -6 -6 -3
-14 3 -8 1 -17 -5 -21 -7 -3 -11 2 -11 14 0 12 -4 21 -9 21 -5 0 -3 13 5 30
16 32 44 31 44 -1z m1358 19 c-2 -6 -10 -14 -16 -16 -7 -2 -10 2 -6 12 7 18
28 22 22 4z m-2783 -25 c10 -41 25 -44 53 -12 l24 30 25 -26 c14 -14 23 -31
20 -39 -4 -9 -2 -18 4 -21 14 -9 7 -65 -8 -65 -16 0 -17 -12 -1 -28 9 -9 9
-15 1 -23 -19 -19 -33 1 -33 49 0 26 -7 56 -15 66 -14 19 -16 18 -55 -24 -41
-44 -47 -43 -52 10 -2 14 -11 28 -20 32 -29 12 -22 52 10 65 39 16 39 16 47
-14z m1695 2 c0 -3 -18 -25 -41 -50 -23 -25 -38 -49 -34 -56 4 -6 1 -15 -6
-20 -11 -7 -9 -9 7 -9 12 0 33 9 48 21 25 20 30 20 94 8 37 -7 71 -16 75 -20
5 -3 22 0 38 8 35 18 45 13 30 -15 -15 -29 -15 -50 1 -34 16 16 23 15 42 -4
21 -21 20 -44 -1 -44 -10 0 -29 -9 -43 -20 -26 -20 -50 -26 -50 -12 0 4 6 14
13 21 10 11 8 13 -10 8 -15 -3 -20 -1 -16 9 3 8 3 14 1 14 -13 0 -105 -54
-115 -67 -11 -14 -18 -15 -52 -3 -22 7 -53 10 -70 7 -24 -5 -34 -2 -45 14 -10
14 -27 21 -55 23 -23 1 -47 8 -54 15 -10 11 -9 13 6 8 9 -4 17 -4 17 -1 0 12
-31 35 -60 46 l-31 10 20 19 c13 13 29 17 43 14 16 -4 31 2 48 17 31 28 75 54
66 39 -4 -7 -1 -8 8 -5 9 3 13 10 10 15 -3 5 6 9 20 9 14 0 26 4 26 8 0 4 15
13 33 19 17 5 33 11 35 12 1 0 2 -1 2 -4z m-3584 -115 c3 -24 10 -47 16 -51 9
-6 9 -11 0 -22 -7 -7 -10 -16 -7 -19 5 -5 -25 -21 -58 -32 -9 -3 -24 -21 -33
-39 -16 -32 -18 -34 -53 -27 -43 9 -82 8 -98 -3 -15 -9 -123 3 -123 14 0 7 60
27 99 33 8 2 22 12 32 24 9 12 21 22 26 22 10 0 26 14 116 98 31 29 62 52 68
50 6 -2 13 -24 15 -48z m3634 40 c0 -5 -5 -10 -11 -10 -5 0 -7 5 -4 10 3 6 8
10 11 10 2 0 4 -4 4 -10z m1790 -4 c0 -3 -4 -8 -10 -11 -5 -3 -10 -1 -10 4 0
6 5 11 10 11 6 0 10 -2 10 -4z m-1175 -26 c-10 -11 -22 -17 -26 -14 -15 9 -10
22 9 27 33 9 35 7 17 -13z m-275 -15 c-12 -15 -30 -12 -30 6 0 5 10 9 21 9 18
0 19 -2 9 -15z m139 -16 c-11 -7 -10 -9 4 -9 24 0 21 -23 -8 -50 -14 -13 -23
-26 -20 -28 3 -3 0 -10 -5 -17 -5 -6 -12 -33 -15 -59 l-6 -48 31 4 c17 3 33 1
36 -4 10 -17 53 -7 75 17 27 28 39 31 39 11 0 -8 7 -16 15 -20 22 -8 19 -26
-4 -26 -11 0 -22 -4 -25 -9 -4 -5 2 -8 11 -6 10 2 28 4 39 4 32 1 27 43 -6 51
-42 10 -7 19 40 10 34 -6 49 -5 61 6 24 21 48 18 42 -6 -5 -21 11 -28 22 -10
13 20 20 9 20 -30 0 -22 -2 -40 -6 -40 -3 0 -18 11 -32 24 -22 20 -29 22 -43
11 -10 -7 -15 -19 -11 -29 8 -21 -2 -21 -18 0 -10 14 -14 12 -29 -20 -11 -22
-24 -36 -36 -36 -10 0 -25 -6 -33 -14 -9 -9 -19 -11 -28 -5 -8 5 -23 9 -35 9
-23 0 -94 -59 -94 -78 0 -14 16 -16 25 -2 3 6 24 10 45 10 26 0 40 5 42 15 2
10 8 12 17 6 11 -7 4 -19 -33 -54 -51 -50 -119 -73 -163 -56 -12 4 -30 6 -38
3 -19 -8 -20 15 0 43 13 19 13 22 -1 27 -13 5 -14 15 -9 48 8 47 24 68 53 68
24 0 46 25 37 40 -5 8 -14 5 -30 -10 -29 -27 -92 -38 -100 -18 -3 8 -2 25 3
39 5 13 10 28 10 33 0 5 5 12 11 15 6 4 12 16 14 27 1 11 13 31 25 44 12 13
24 32 28 42 3 10 12 18 21 18 9 0 13 6 9 15 -6 18 41 68 56 59 6 -4 5 -10 -3
-15z m-2127 -71 c8 -21 -2 -38 -23 -38 -21 0 -27 19 -6 21 8 0 8 2 -2 6 -11 5
-11 7 0 14 19 12 26 11 31 -3z m1948 0 c0 -8 -40 -38 -51 -38 -4 0 -2 11 4 24
10 22 47 33 47 14z m-80 -28 c0 -5 -7 -10 -15 -10 -8 0 -15 5 -15 10 0 6 7 10
15 10 8 0 15 -4 15 -10z m-4306 -76 c26 -10 18 -19 -16 -19 -17 0 -33 6 -35
13 -5 13 24 16 51 6z m6424 -50 c-7 -15 -14 -21 -16 -15 -2 7 2 18 8 26 18 22
21 18 8 -11z m-51 -76 c-3 -8 -6 -5 -6 6 -1 11 2 17 5 13 3 -3 4 -12 1 -19z
m-27 -41 c0 -7 -11 -24 -25 -39 -14 -15 -30 -38 -35 -50 -5 -13 -9 -16 -9 -8
-1 15 55 110 64 110 3 0 5 -6 5 -13z m-4727 -38 c7 -25 -21 -55 -69 -75 -21
-9 -34 -21 -34 -32 0 -29 -21 -42 -71 -42 -33 0 -49 5 -53 15 -4 11 3 17 24
22 17 3 33 10 36 14 3 5 14 9 25 9 10 0 19 4 19 9 0 16 87 101 103 101 8 0 17
-9 20 -21z m3257 -64 c0 -3 -11 -17 -24 -31 -19 -21 -24 -23 -29 -10 -7 17 17
46 39 46 8 0 14 -2 14 -5z m-83 -27 c-3 -8 -6 -5 -6 6 -1 11 2 17 5 13 3 -3 4
-12 1 -19z m-3543 -38 c-6 -6 -28 -13 -50 -16 l-39 -5 30 15 c36 17 74 21 59
6z m3271 -39 c3 -6 17 -6 35 -1 23 6 30 5 30 -5 0 -7 -7 -16 -15 -19 -13 -5
-14 -10 -4 -27 8 -16 8 -23 -1 -29 -6 -4 -11 -11 -10 -16 2 -14 -25 -28 -42
-21 -22 8 -42 95 -27 113 13 16 25 18 34 5z m-4568 -17 c3 -9 1 -25 -6 -36 -6
-10 -9 -23 -6 -27 7 -12 -22 -34 -35 -26 -6 4 -8 15 -5 25 4 12 -1 19 -15 23
-22 6 -28 42 -7 50 28 12 68 6 74 -9z m128 -10 c20 -15 20 -15 0 -30 -13 -10
-30 -12 -54 -8 -33 7 -34 6 -19 -9 9 -10 28 -17 43 -17 14 0 35 -8 46 -19 20
-18 20 -19 -15 -25 -35 -7 -92 13 -107 37 -17 26 28 87 64 87 12 0 31 -8 42
-16z m1512 -14 c13 0 13 -3 3 -15 -12 -15 -71 -21 -83 -8 -9 9 35 32 51 27 8
-2 21 -4 29 -4z m-1707 -59 c0 -6 -4 -13 -10 -16 -5 -3 -10 1 -10 9 0 9 5 16
10 16 6 0 10 -4 10 -9z m4723 -128 c-7 -2 -21 -2 -30 0 -10 3 -4 5 12 5 17 0
24 -2 18 -5z m-1914 -52 c8 -14 7 -22 -5 -32 -12 -10 -12 -14 -2 -21 9 -6 2
-8 -19 -4 -26 4 -33 2 -33 -10 0 -26 -25 -10 -28 18 -2 17 5 33 19 47 28 26
55 27 68 2z m-2571 -23 c5 -25 -25 -23 -38 3 -10 18 -9 20 12 17 12 -2 24 -11
26 -20z m4132 8 c0 -11 -19 -15 -25 -6 -3 5 1 10 9 10 9 0 16 -2 16 -4z m420
-47 c7 -11 10 -22 8 -22 -2 -1 -13 -11 -26 -22 -13 -10 -40 -20 -61 -21 -21
-1 -48 -5 -59 -8 -15 -5 -24 -1 -33 15 -10 19 -9 21 5 16 9 -4 16 -2 16 3 0 6
9 10 19 10 11 0 22 9 26 19 4 14 17 21 43 24 20 2 40 4 44 5 4 1 12 -7 18 -19z
m-4504 -61 c1 -11 -7 -17 -26 -20 -40 -6 -71 8 -64 27 9 23 86 17 90 -7z
m-143 -3 c-3 -13 -53 -20 -53 -7 0 15 13 23 35 20 11 -2 19 -7 18 -13z m2287
-33 c0 -16 -3 -31 -6 -35 -8 -7 -77 17 -81 29 -3 8 41 26 80 33 4 0 7 -12 7
-27z m90 -102 c0 -30 -49 -66 -57 -42 -3 6 -14 12 -25 12 -12 0 -19 -3 -15 -6
10 -10 -49 -54 -71 -54 -42 0 -13 69 29 70 24 0 41 24 28 37 -14 14 -3 33 17
33 8 0 14 4 14 9 0 6 18 0 40 -11 31 -17 40 -28 40 -48z m-2481 32 c-25 -21
-80 -24 -87 -4 -3 9 3 11 21 7 14 -4 28 -2 31 4 4 6 19 11 33 11 l25 0 -23
-18z m4567 -24 c-4 -13 -9 -37 -12 -54 -5 -23 -15 -36 -40 -48 -19 -8 -34 -20
-34 -26 0 -5 -10 -10 -22 -10 -30 0 -52 -15 -44 -28 3 -6 1 -14 -5 -17 -5 -4
-8 -13 -5 -21 3 -8 -1 -17 -10 -21 -8 -3 -13 -12 -9 -21 3 -8 0 -21 -6 -28 -9
-11 -8 -14 5 -14 10 0 14 -4 11 -10 -3 -5 -24 -10 -45 -10 -54 0 -92 39 -79
83 5 16 5 35 2 41 -4 6 -7 22 -7 36 -1 14 -5 31 -9 38 -6 8 0 22 15 37 19 21
32 25 85 25 42 0 66 5 77 16 18 18 20 26 7 40 -6 5 16 10 61 12 69 2 70 2 64
-20z m-963 -37 c31 -12 38 -54 10 -69 -14 -8 -11 -12 18 -25 19 -8 44 -18 55
-22 29 -8 57 -34 71 -67 15 -33 76 -62 115 -54 18 4 45 -3 79 -21 44 -22 68
-28 122 -32 5 -1 5 -7 0 -13 -4 -7 -8 -20 -8 -28 0 -10 -10 -15 -30 -15 -27 0
-30 -3 -28 -30 1 -16 12 -36 23 -45 25 -19 25 -74 0 -64 -8 3 -29 10 -46 15
-35 10 -79 53 -70 67 3 6 -1 17 -9 25 -8 9 -15 20 -15 25 0 5 -8 9 -17 8 -10
0 -17 4 -16 10 4 19 -82 37 -142 31 -44 -4 -59 -2 -79 14 -27 21 -47 24 -63 8
-17 -17 -92 7 -102 33 -10 28 7 139 25 159 8 8 14 21 14 27 0 7 8 29 17 51 13
29 21 37 32 31 9 -4 28 -13 44 -19z m-2293 -9 c-17 -6 -42 7 -35 18 4 6 13 5
26 -3 10 -6 15 -13 9 -15z m3392 -142 c28 -22 19 -44 -29 -68 -91 -46 -138
-33 -137 37 1 25 -2 38 -9 34 -5 -3 -7 -1 -4 4 4 6 41 11 82 11 57 0 81 -5 97
-18z m-622 -20 c0 -5 14 -11 30 -15 22 -5 30 -12 30 -27 0 -19 -4 -20 -61 -14
-46 4 -65 11 -79 28 -17 21 -17 24 -2 29 25 9 82 8 82 -1z m-3550 -85 c0 -10
-10 -15 -30 -15 -49 0 -34 24 18 29 6 0 12 -6 12 -14z m4004 7 c37 -7 38 -8
23 -24 -14 -13 -23 -15 -54 -6 -31 8 -39 7 -50 -8 -7 -10 -13 -13 -13 -7 0 6
-3 18 -6 26 -9 23 32 31 100 19z m-4346 -53 c2 -12 -7 -18 -35 -22 -21 -4 -42
-2 -47 3 -7 7 1 10 22 10 25 0 30 3 25 16 -4 12 -1 15 13 12 10 -2 20 -10 22
-19z m4322 -9 c0 -5 -6 -10 -14 -10 -8 0 -18 5 -21 10 -3 6 3 10 14 10 12 0
21 -4 21 -10z m-2910 -25 c0 -8 -9 -23 -20 -32 -14 -12 -16 -20 -9 -29 10 -13
9 -15 -41 -53 l-25 -19 42 -8 41 -9 -32 -16 c-22 -12 -38 -14 -56 -7 -18 7
-21 11 -12 17 10 6 5 11 -15 20 -26 10 -28 16 -28 63 0 66 22 84 59 49 29 -27
52 -23 66 14 10 27 30 34 30 10z m-604 -22 c-2 -9 -21 -23 -44 -32 -37 -15
-71 -44 -72 -63 0 -4 19 -8 42 -10 38 -3 69 -28 34 -28 -8 0 -32 -11 -52 -25
-28 -19 -33 -26 -21 -31 9 -3 22 -4 29 -2 12 4 58 -42 58 -57 0 -4 -9 -5 -20
-2 -11 3 -20 1 -20 -4 0 -5 -7 -9 -15 -9 -8 0 -19 -9 -25 -19 -8 -17 -21 -20
-78 -19 -43 0 -78 -6 -97 -16 -16 -9 -36 -16 -44 -16 -22 0 -81 -23 -81 -31 0
-4 5 -11 11 -15 13 -8 -8 -24 -31 -24 -13 1 -12 3 1 13 15 11 15 15 -6 41 -16
20 -28 26 -42 22 -13 -4 -29 2 -46 18 -17 15 -34 23 -45 20 -13 -5 -14 -4 -3
4 11 8 5 16 -28 37 -22 15 -41 30 -41 34 0 3 26 5 57 4 32 -1 72 5 90 12 21 9
42 11 56 6 21 -8 21 -9 -10 -28 -18 -11 -30 -22 -27 -25 3 -4 -4 -9 -15 -13
-31 -9 -14 -35 23 -35 36 0 136 46 136 63 0 15 79 87 95 87 8 0 35 11 61 25
41 22 44 25 20 25 -14 0 -26 -4 -26 -10 0 -5 -11 -10 -25 -10 -15 0 -40 -7
-57 -16 -17 -9 -48 -18 -69 -20 -34 -4 -39 -2 -39 15 0 13 12 27 30 36 17 9
30 20 30 25 0 11 48 37 81 44 13 3 49 10 79 16 30 7 70 12 88 11 17 0 32 4 32
9 0 6 6 10 14 10 8 0 13 -7 12 -17z m-496 -23 c0 -5 -14 -10 -31 -10 -17 0
-28 4 -24 10 3 6 17 10 31 10 13 0 24 -4 24 -10z m-233 -16 c19 -12 21 -18 12
-40 -5 -15 -8 -29 -5 -31 5 -6 35 -5 74 1 37 6 40 -2 12 -37 -11 -14 -20 -30
-20 -35 0 -12 -24 -22 -56 -22 -28 0 -30 7 -8 31 19 21 11 39 -19 39 -31 0
-53 15 -37 25 7 5 -1 15 -24 31 -36 24 -42 35 -30 47 11 11 78 5 101 -9z m843
-9 c0 -32 -13 -45 -46 -45 -41 0 -42 7 -9 42 25 27 55 29 55 3z m-572 9 c24
-7 30 -24 8 -24 -7 0 -25 -9 -39 -20 -41 -32 -51 -20 -21 25 18 27 19 28 52
19z m3452 -140 c0 -2 -7 -4 -15 -4 -8 0 -15 4 -15 10 0 5 7 7 15 4 8 -4 15 -8
15 -10z m-3350 -14 c0 -5 -4 -10 -9 -10 -6 0 -13 5 -16 10 -3 6 1 10 9 10 9 0
16 -4 16 -10z m718 -6 c21 -6 13 -22 -16 -32 -15 -5 -43 -26 -61 -45 -33 -34
-66 -48 -163 -67 -21 -4 -38 -3 -38 1 0 5 -9 9 -21 9 -18 0 -20 5 -15 48 2 26
5 52 5 58 1 13 87 37 102 29 16 -11 10 -37 -11 -42 -11 -3 -20 -14 -20 -24 0
-11 -7 -19 -15 -19 -18 0 -19 -12 -4 -27 9 -9 15 -8 26 3 9 9 23 12 37 8 17
-5 19 -4 9 7 -20 21 -15 39 15 51 15 7 37 21 50 32 20 18 24 18 32 6 5 -8 10
-11 10 -6 0 5 6 3 14 -3 10 -8 16 -9 21 -1 3 5 -1 10 -9 10 -9 0 -16 5 -16 10
0 9 27 7 68 -6z m-351 -10 c-3 -3 -12 -4 -19 -1 -8 3 -5 6 6 6 11 1 17 -2 13
-5z m841 -62 c3 -16 -5 -27 -29 -40 -17 -9 -52 -36 -76 -59 -36 -35 -52 -43
-82 -43 -29 0 -44 -7 -64 -30 -21 -24 -35 -30 -66 -30 -33 0 -40 4 -45 25 -4
14 -10 25 -15 25 -4 0 -6 12 -3 27 5 28 67 92 89 93 7 0 16 7 20 15 20 35 113
36 113 2 0 -28 27 -41 60 -27 16 7 30 16 30 21 0 16 35 48 50 46 8 -1 16 -12
18 -25z m792 -26 c0 -16 -45 -66 -60 -66 -15 0 -1 52 18 68 21 16 42 15 42 -2z
m-590 -6 c0 -5 -7 -10 -15 -10 -8 0 -15 5 -15 10 0 6 7 10 15 10 8 0 15 -4 15
-10z m-1078 -52 c-7 -7 -12 -8 -12 -2 0 6 3 14 7 17 3 4 9 5 12 2 2 -3 -1 -11
-7 -17z m2421 -1 c6 -9 10 -9 14 0 3 10 8 10 19 -1 8 -8 14 -20 14 -26 0 -8 8
-10 23 -5 25 7 31 7 72 -1 31 -6 46 -27 59 -87 5 -23 11 -27 27 -22 14 5 28
-2 49 -22 25 -24 36 -28 70 -25 34 3 40 7 35 22 -4 13 1 19 20 24 14 4 30 4
35 1 16 -10 93 19 98 38 3 11 14 17 32 17 15 0 41 7 56 15 16 8 49 15 73 15
24 0 75 8 113 17 55 13 74 14 89 5 10 -7 25 -12 34 -12 14 0 35 -29 35 -48 0
-5 -10 -13 -22 -19 -19 -8 -23 -18 -23 -54 0 -41 -2 -44 -34 -55 -19 -6 -29
-14 -24 -17 6 -4 13 -16 16 -27 4 -16 -1 -23 -19 -30 -26 -10 -29 -21 -14 -51
9 -16 6 -24 -20 -46 -18 -14 -36 -37 -41 -50 -5 -12 -16 -23 -26 -23 -10 0
-28 -16 -41 -36 -12 -19 -30 -38 -40 -41 -9 -4 -27 -16 -39 -28 -12 -11 -33
-28 -47 -38 -14 -10 -26 -26 -26 -36 0 -26 -27 -34 -68 -19 -28 11 -36 11 -40
0 -2 -7 -11 -20 -20 -29 -22 -22 -42 -61 -42 -84 0 -11 -7 -19 -17 -19 -14 0
-18 -8 -18 -37 0 -37 -1 -38 -40 -41 -22 -2 -48 -10 -57 -19 -10 -9 -28 -13
-43 -11 -21 4 -31 -2 -56 -34 -30 -37 -33 -38 -78 -34 -25 2 -53 7 -61 10 -10
4 -22 -4 -33 -24 -10 -17 -22 -28 -26 -26 -4 3 -28 -1 -54 -9 -25 -7 -61 -12
-79 -9 -72 9 -139 8 -146 -2 -13 -21 -51 -26 -68 -10 -8 9 -27 16 -42 16 -20
1 -36 13 -62 48 -19 26 -38 55 -42 64 -10 24 -34 23 -52 -3 -8 -13 -28 -23
-48 -25 -18 -2 -39 -6 -46 -9 -7 -3 -17 7 -24 23 -7 18 -12 22 -16 13 -3 -10
-9 -8 -23 10 -16 22 -19 22 -36 7 -28 -25 -56 -25 -87 -1 -15 13 -43 25 -62
29 -19 3 -34 10 -34 16 0 14 -70 0 -117 -25 l-43 -22 -16 23 c-8 12 -25 22
-38 22 -26 0 -61 34 -51 49 4 7 -4 11 -19 11 -13 0 -31 7 -40 15 -8 8 -28 15
-45 15 -21 0 -32 6 -36 20 -9 27 -23 25 -47 -6 -11 -14 -23 -23 -26 -20 -3 3
-11 1 -19 -6 -20 -16 -28 -2 -15 28 9 18 9 31 1 45 -10 19 -12 19 -28 5 -10
-9 -23 -16 -29 -16 -7 0 -11 -5 -9 -11 1 -6 -4 -14 -10 -16 -8 -3 -13 5 -13
22 0 15 5 25 13 24 6 -1 17 -1 22 0 14 1 17 61 3 61 -6 0 -17 8 -24 18 -10 13
-15 14 -25 5 -19 -19 -69 11 -69 42 0 14 -5 25 -11 25 -5 0 -7 -4 -4 -10 3 -5
-1 -10 -9 -10 -9 0 -16 11 -18 28 -2 19 -8 26 -20 24 -27 -4 -29 14 -3 28 14
7 25 19 25 27 0 7 9 13 19 13 20 0 37 -32 26 -50 -4 -6 5 -10 19 -10 16 0 32
9 42 26 17 25 17 26 -10 49 l-27 23 30 21 c29 21 61 28 61 13 0 -19 58 -32
103 -23 36 6 49 5 58 -6 8 -9 22 -12 39 -8 34 7 56 -16 65 -72 4 -24 8 -43 10
-43 19 0 35 17 35 38 0 39 32 101 53 102 28 0 32 -4 29 -29 -3 -20 0 -23 18
-18 16 4 19 2 11 -7 -16 -19 -3 -26 25 -15 30 11 41 -8 25 -40 -6 -11 -11 -34
-11 -51 0 -28 2 -30 21 -19 12 6 33 9 48 6 43 -9 87 16 101 57 8 26 24 43 56
62 46 27 61 56 50 98 -7 28 9 38 37 24 18 -9 18 -10 1 -22 -12 -9 -14 -15 -6
-20 7 -4 12 -2 12 5 0 8 4 8 15 -1 21 -18 86 -20 92 -4 5 13 53 13 85 0 13 -6
23 2 42 33 18 28 36 43 58 49 26 6 34 14 36 36 2 15 11 30 20 33 39 14 152
106 158 129 3 13 10 24 15 24 5 0 14 11 21 25 15 33 80 56 138 49 25 -3 49
-11 53 -17z m-1723 -154 c-1 -19 -30 -44 -48 -41 -31 5 -10 48 23 48 14 0 25
-3 25 -7z m198 -67 c6 -28 -17 -71 -46 -88 -23 -14 -30 -14 -45 -3 -17 13 -18
16 -3 47 16 33 62 70 81 64 6 -1 12 -11 13 -20z m697 -57 c-4 -12 -16 -30 -26
-40 -13 -13 -18 -27 -14 -40 9 -28 -19 -25 -32 4 -12 25 1 59 40 103 18 21 22
22 30 9 4 -8 5 -25 2 -36z m-1112 -69 c-3 -11 0 -27 7 -35 7 -9 9 -19 5 -23
-4 -4 -10 -1 -12 6 -3 6 -13 12 -24 12 -25 0 -35 25 -19 45 19 23 49 19 43 -5z
m557 -20 c0 -5 -9 -10 -20 -10 -11 0 -20 5 -20 10 0 6 9 10 20 10 11 0 20 -4
20 -10z m-2060 -52 c0 -4 -4 -9 -9 -12 -5 -3 -7 -15 -4 -26 3 -11 1 -20 -5
-20 -5 0 -13 -16 -16 -36 -4 -19 -10 -42 -13 -51 -5 -12 -1 -14 15 -8 20 6 21
4 12 -21 -10 -25 -9 -26 7 -13 10 7 26 22 35 33 9 12 19 18 22 15 4 -3 -3 -16
-14 -29 -11 -13 -21 -29 -21 -37 -1 -7 -2 -18 -3 -25 0 -6 -12 -12 -25 -13
-13 -1 -27 -9 -32 -18 -8 -14 -12 -14 -39 -1 -38 19 -46 32 -25 40 26 10 34
46 17 71 -10 17 -12 36 -7 69 11 79 22 93 66 91 22 -1 39 -5 39 -9z m463 -78
c-3 -10 -14 -22 -24 -25 -32 -10 -23 -32 11 -27 37 5 38 -3 2 -38 -22 -21 -36
-26 -60 -22 -34 5 -41 22 -17 42 27 22 17 33 -25 27 -22 -3 -40 -3 -40 0 0 14
38 32 66 33 18 0 45 7 60 15 16 8 30 15 31 15 0 0 -1 -9 -4 -20z m57 -175 c0
-19 -7 -26 -27 -31 -16 -4 -34 -12 -41 -17 -11 -8 -18 -5 -32 13 -11 15 -23
21 -34 17 -9 -4 -16 -3 -16 2 0 18 27 30 75 34 28 2 56 4 63 5 7 1 12 -9 12
-23z m310 13 c0 -7 -18 -21 -39 -30 -34 -15 -61 -51 -48 -64 2 -2 31 -8 63
-12 50 -6 59 -10 59 -27 0 -12 -11 -25 -27 -33 -15 -7 -37 -25 -50 -40 -27
-32 -55 -46 -64 -31 -3 5 -15 7 -26 4 -25 -9 -60 22 -53 46 3 9 1 20 -5 24 -6
4 -8 15 -5 25 5 15 -2 19 -35 25 -30 5 -40 11 -40 26 0 10 7 19 15 19 8 0 15
6 15 14 0 9 16 17 41 21 23 4 49 15 58 24 21 21 141 29 141 9z m106 -230 c-22
-53 -86 -65 -86 -16 0 15 -5 19 -20 15 -11 -3 -20 -3 -20 -1 0 9 70 34 95 34
14 0 25 5 25 12 0 8 3 9 10 2 7 -7 6 -22 -4 -46z m-963 -89 c-12 -12 -33 -4
-33 12 0 6 5 7 10 4 6 -3 10 -1 10 6 0 10 3 10 12 1 9 -9 9 -15 1 -23z m1307
-25 c-7 -7 -19 -14 -26 -14 -22 0 -16 36 9 53 20 14 22 13 25 -5 2 -10 -2 -26
-8 -34z m-1400 6 c4 0 10 -10 14 -22 4 -18 8 -20 18 -10 9 9 7 17 -12 37 l-23
25 25 0 c35 0 44 -44 16 -82 -22 -32 -38 -37 -31 -9 3 13 -2 23 -18 31 -20 11
-21 10 -16 -9 3 -14 0 -21 -8 -21 -8 0 -15 8 -17 18 -5 20 35 76 40 55 2 -7 7
-13 12 -13z m-60 -80 c12 -8 11 -10 -7 -10 -12 0 -25 5 -28 10 -8 13 15 13 35
0z m-65 -29 c22 -11 34 -20 27 -20 -15 -1 -6 -41 12 -53 6 -4 7 -10 2 -15 -4
-4 -12 1 -19 12 -23 42 -65 75 -96 75 -21 0 -31 -5 -31 -15 0 -8 -4 -15 -9
-15 -5 0 -8 11 -8 25 0 23 3 25 41 25 22 0 59 -9 81 -19z m-40 -34 c11 -8 14
-16 8 -20 -6 -4 -18 2 -28 13 -21 23 -8 27 20 7z m-159 -33 c-9 -8 -21 -12
-28 -8 -8 5 -6 10 8 15 31 12 37 10 20 -7z m421 -80 c-3 -3 -12 -4 -19 -1 -8
3 -5 6 6 6 11 1 17 -2 13 -5z m-529 -34 c15 0 15 -2 2 -10 -18 -12 -60 -13
-60 -2 0 15 13 23 28 17 7 -3 21 -5 30 -5z m476 -16 c26 -26 18 -36 -15 -18
-25 12 -29 18 -18 25 18 11 15 12 33 -7z m-115 -123 c7 -5 12 -14 10 -20 -3
-8 -13 -5 -28 8 -24 21 -10 30 18 12z m51 -47 c0 -3 -7 -12 -15 -20 -11 -12
-26 -14 -61 -8 -52 8 -47 21 11 27 22 2 46 4 53 5 6 1 12 -1 12 -4z m-677 -71
c-7 -2 -19 -2 -25 0 -7 3 -2 5 12 5 14 0 19 -2 13 -5z m642 -24 l40 -21 -41 5
c-23 3 -48 1 -55 -4 -10 -6 -6 -9 14 -9 17 0 27 -5 27 -15 0 -17 -16 -20 -25
-5 -4 6 -11 8 -16 5 -15 -10 -49 5 -49 20 0 12 43 43 60 45 3 0 24 -9 45 -21z
m-725 -59 c0 -5 9 -10 19 -10 20 0 51 -25 51 -41 0 -5 -12 -9 -27 -9 -26 0
-26 -1 -7 -15 18 -14 17 -14 -16 -16 l-35 -1 38 -8 c21 -4 43 -13 50 -20 10
-10 8 -11 -8 -5 -33 13 -65 18 -65 10 0 -14 29 -35 49 -35 11 0 24 -6 28 -14
4 -7 14 -15 20 -17 7 -2 -21 -4 -63 -5 -49 -1 -71 2 -62 8 8 6 -1 8 -27 4 -22
-3 -51 -6 -64 -6 -16 0 -21 -4 -17 -15 8 -22 -11 -18 -23 4 -8 14 -6 23 9 36
11 10 17 22 14 26 -6 10 19 39 34 39 21 0 62 43 62 65 0 21 10 32 33 34 4 1 7
-3 7 -9z m620 -10 c13 -8 13 -10 -2 -10 -9 0 -20 5 -23 10 -8 13 5 13 25 0z
m45 -20 c3 -5 2 -10 -4 -10 -5 0 -13 5 -16 10 -3 6 -2 10 4 10 5 0 13 -4 16
-10z m-24 -27 c13 -15 11 -16 -11 -10 -14 4 -31 7 -38 7 -7 0 -10 5 -7 10 10
16 41 12 56 -7z m-38 -110 c-7 -2 -19 -2 -25 0 -7 3 -2 5 12 5 14 0 19 -2 13
-5z m737 -43 c0 -5 -4 -10 -10 -10 -5 0 -10 5 -10 10 0 6 5 10 10 10 6 0 10
-4 10 -10z m-1487 -27 c-7 -2 -21 -2 -30 0 -10 3 -4 5 12 5 17 0 24 -2 18 -5z
m27 -28 c0 -13 -36 -45 -51 -45 -9 0 -24 -12 -34 -26 -24 -37 -115 -72 -115
-44 0 6 7 10 16 10 30 0 2 20 -29 21 -27 0 -29 2 -12 9 11 5 35 9 53 9 53 1
36 21 -19 21 -31 0 -48 4 -44 10 3 6 28 10 56 10 37 0 49 4 49 15 0 12 14 15
65 15 36 0 65 -2 65 -5z m1616 -60 c-21 -16 -56 -20 -56 -7 0 16 13 22 44 22
29 -1 30 -1 12 -15z m-1933 -2 c-7 -2 -19 -2 -25 0 -7 3 -2 5 12 5 14 0 19 -2
13 -5z m90 -80 c-7 -2 -19 -2 -25 0 -7 3 -2 5 12 5 14 0 19 -2 13 -5z m677
-13 c33 -25 19 -25 -22 0 -18 11 -26 20 -18 20 8 0 26 -9 40 -20z m1050 10 c0
-5 -5 -10 -11 -10 -5 0 -7 5 -4 10 3 6 8 10 11 10 2 0 4 -4 4 -10z m-1867 -17
c-7 -2 -19 -2 -25 0 -7 3 -2 5 12 5 14 0 19 -2 13 -5z m252 -3 c-3 -5 -15 -10
-26 -10 -11 0 -19 -7 -19 -16 0 -12 -6 -15 -24 -10 -14 3 -28 2 -31 -4 -3 -5
0 -10 7 -10 8 0 5 -7 -7 -19 -18 -17 -135 -40 -135 -26 0 3 27 17 60 32 48 21
58 28 49 39 -6 8 -21 15 -33 16 -11 1 11 4 49 8 114 11 117 11 110 0z m8 -57
c-7 -2 -19 -2 -25 0 -7 3 -2 5 12 5 14 0 19 -2 13 -5z m-113 -73 c21 -7 22 -8
5 -9 -11 -1 -29 -7 -40 -15 -25 -16 -75 -26 -75 -14 0 5 7 11 15 14 8 4 15 12
15 20 0 15 38 17 80 4z m2078 -62 c3 -21 -3 -28 -29 -37 -18 -6 -44 -11 -58
-10 -26 0 -26 0 6 16 17 9 36 27 42 40 14 30 35 25 39 -9z"/>
<path d="M3180 5564 c0 -8 5 -12 10 -9 6 3 10 -3 10 -15 0 -12 5 -18 10 -15
16 10 12 29 -10 43 -17 10 -20 10 -20 -4z"/>
<path d="M6620 5726 c0 -16 6 -26 14 -26 9 0 12 7 9 20 -8 31 -23 34 -23 6z"/>
<path d="M6675 5699 c-5 -14 -1 -27 9 -37 15 -15 16 -14 16 15 0 38 -16 52
-25 22z"/>
<path d="M2828 4643 c7 -3 16 -2 19 1 4 3 -2 6 -13 5 -11 0 -14 -3 -6 -6z"/>
<path d="M5440 4189 c-13 -9 -13 -10 1 -6 9 3 22 1 30 -4 11 -7 9 -9 -8 -9
-30 0 -30 -16 0 -22 50 -10 66 20 22 40 -31 14 -27 14 -45 1z"/>
<path d="M5490 2750 c-13 -9 -13 -10 0 -10 8 0 26 -3 40 -6 24 -5 24 -5 6 10
-23 19 -26 19 -46 6z"/>
<path d="M1615 6780 c3 -5 10 -10 16 -10 5 0 9 5 9 10 0 6 -7 10 -16 10 -8 0
-12 -4 -9 -10z"/>
<path d="M1912 6773 c5 -25 28 -28 28 -4 0 12 -6 21 -16 21 -9 0 -14 -7 -12
-17z"/>
<path d="M6704 6750 c-12 -12 -153 -17 -249 -8 -42 4 -64 3 -54 -2 8 -5 24
-35 34 -67 11 -32 25 -65 31 -73 7 -8 26 -40 42 -70 38 -69 54 -80 78 -55 18
17 19 17 22 1 2 -9 -10 -31 -27 -48 -20 -20 -31 -42 -31 -60 0 -34 7 -35 62
-4 27 14 70 26 113 31 50 5 74 12 86 27 10 10 20 19 23 19 21 -3 26 1 26 17 0
44 -54 67 -175 75 -41 3 -46 43 -10 77 14 13 25 29 25 36 0 7 14 22 30 34 39
28 43 80 7 80 -13 0 -28 -5 -33 -10z"/>
<path d="M3491 6600 c0 -8 4 -24 9 -35 5 -13 9 -14 9 -5 0 8 -4 24 -9 35 -5
13 -9 14 -9 5z"/>
<path d="M5360 6520 c-6 -11 -7 -20 -3 -20 4 0 1 -4 -7 -10 -8 -5 -12 -11 -9
-14 10 -10 49 25 49 45 0 25 -16 24 -30 -1z"/>
<path d="M3521 6500 c0 -8 4 -22 9 -30 12 -18 12 -2 0 25 -6 13 -9 15 -9 5z"/>
<path d="M3541 6434 c0 -11 3 -14 6 -6 3 7 2 16 -1 19 -3 4 -6 -2 -5 -13z"/>
<path d="M6870 6429 c0 -5 9 -9 20 -9 11 0 20 2 20 4 0 2 -9 6 -20 9 -11 3
-20 1 -20 -4z"/>
<path d="M3551 6394 c0 -11 3 -14 6 -6 3 7 2 16 -1 19 -3 4 -6 -2 -5 -13z"/>
<path d="M6900 6401 c0 -41 34 -56 38 -16 1 19 -3 25 -18 25 -11 0 -20 -4 -20
-9z"/>
<path d="M2744 6345 c8 -45 45 -177 51 -183 10 -11 4 31 -16 105 -21 81 -45
134 -35 78z"/>
<path d="M6962 6344 c-7 -8 -8 -14 -3 -14 10 0 25 19 20 25 -2 1 -10 -3 -17
-11z"/>
<path d="M5427 6317 c-3 -8 -2 -19 3 -26 5 -10 9 -8 14 4 3 9 6 21 6 26 0 14
-17 11 -23 -4z"/>
<path d="M5366 6311 c-4 -7 -5 -15 -2 -18 9 -9 19 4 14 18 -4 11 -6 11 -12 0z"/>
<path d="M6940 6300 c0 -5 5 -10 10 -10 6 0 10 5 10 10 0 6 -4 10 -10 10 -5 0
-10 -4 -10 -10z"/>
<path d="M6435 6286 c-5 -11 -3 -21 6 -26 19 -12 21 -7 10 21 -8 22 -10 22
-16 5z"/>
<path d="M6297 6113 c-12 -12 -7 -19 14 -20 17 -2 18 1 9 13 -14 16 -14 16
-23 7z"/>
<path d="M4638 6013 c7 -3 16 -2 19 1 4 3 -2 6 -13 5 -11 0 -14 -3 -6 -6z"/>
<path d="M4200 5950 c0 -5 5 -10 11 -10 5 0 7 5 4 10 -3 6 -8 10 -11 10 -2 0
-4 -4 -4 -10z"/>
<path d="M4790 5790 c-8 -5 -10 -10 -4 -10 7 0 14 -9 17 -20 3 -11 13 -20 22
-20 12 0 15 7 13 27 -3 30 -23 39 -48 23z"/>
<path d="M4888 5693 c-22 -6 -23 -19 -2 -27 8 -3 12 -10 9 -16 -3 -5 -2 -10 2
-10 5 0 14 -9 21 -21 10 -16 10 -24 2 -35 -9 -10 -8 -17 3 -29 9 -8 21 -15 27
-15 9 0 10 -19 5 -70 -9 -87 0 -89 66 -18 58 63 67 90 40 124 l-19 24 -29 -24
c-47 -39 -83 -27 -58 20 8 16 15 46 15 67 0 35 -1 37 -32 36 -18 -1 -41 -3
-50 -6z"/>
<path d="M2560 5582 c0 -6 9 -12 20 -15 11 -3 20 -3 20 -1 0 2 -9 8 -20 14
-11 6 -20 7 -20 2z"/>
<path d="M5715 5530 c-3 -5 3 -10 14 -10 12 0 21 5 21 10 0 6 -6 10 -14 10 -8
0 -18 -4 -21 -10z"/>
<path d="M4420 5209 c0 -5 5 -7 10 -4 6 3 10 8 10 11 0 2 -4 4 -10 4 -5 0 -10
-5 -10 -11z"/>
<path d="M4412 5160 c0 -14 2 -19 5 -12 2 6 2 18 0 25 -3 6 -5 1 -5 -13z"/>
<path d="M4598 5103 c-5 -24 13 -64 26 -60 10 3 11 14 8 60 -1 9 -8 17 -16 17
-8 0 -16 -8 -18 -17z"/>
<path d="M4477 5023 c-4 -3 -7 -20 -7 -36 0 -26 2 -28 16 -16 12 10 17 10 23
1 6 -10 14 -9 35 1 21 11 23 16 11 20 -8 4 -15 13 -15 22 0 15 -50 22 -63 8z"/>
<path d="M4596 4951 c-19 -7 -19 -8 2 -13 15 -4 22 -2 22 8 0 8 -1 14 -2 13
-2 0 -12 -4 -22 -8z"/>
<path d="M4536 4915 c4 -8 8 -15 10 -15 2 0 4 7 4 15 0 8 -4 15 -10 15 -5 0
-7 -7 -4 -15z"/>
<path d="M1356 3971 c-4 -5 3 -15 15 -21 27 -15 31 -10 9 13 -11 11 -20 14
-24 8z"/>
<path d="M1096 3884 c-4 -9 -4 -19 -2 -21 8 -8 26 8 26 23 0 19 -16 18 -24 -2z"/>
<path d="M1060 3770 c0 -5 5 -10 11 -10 5 0 7 5 4 10 -3 6 -8 10 -11 10 -2 0
-4 -4 -4 -10z"/>
<path d="M1090 3700 c0 -5 5 -10 11 -10 5 0 7 5 4 10 -3 6 -8 10 -11 10 -2 0
-4 -4 -4 -10z"/>
<path d="M1160 3680 c-8 -5 -35 -10 -60 -11 -25 0 -39 -3 -32 -6 18 -7 15 -21
-8 -28 -24 -8 -26 -40 -4 -62 10 -11 14 -26 10 -44 -3 -16 -1 -31 4 -34 6 -3
10 -17 10 -31 0 -36 43 -54 70 -29 16 14 19 26 14 51 -4 23 -1 41 12 61 13 19
19 46 19 82 0 56 -9 68 -35 51z"/>
<path d="M1153 3402 c-19 -3 -23 -10 -22 -35 0 -18 3 -26 6 -19 10 24 23 11
23 -22 0 -23 7 -40 19 -48 10 -7 21 -23 25 -35 4 -13 12 -23 17 -23 5 0 9 -6
9 -14 0 -7 7 -19 15 -26 8 -7 15 -21 15 -31 0 -26 7 -24 47 11 20 18 45 30 62
30 25 0 28 4 29 35 1 29 -3 37 -29 51 -17 8 -37 13 -45 10 -22 -8 -73 14 -79
35 -3 10 -18 28 -33 40 -15 11 -29 26 -32 32 -3 7 -15 11 -27 9z"/>
<path d="M1375 3310 c-3 -5 1 -10 10 -10 9 0 13 5 10 10 -3 6 -8 10 -10 10 -2
0 -7 -4 -10 -10z"/>
<path d="M608 3263 c-31 -5 -39 -23 -10 -23 37 0 92 13 92 21 0 9 -31 10 -82
2z"/>
<path d="M292 3162 c-12 -8 -56 -20 -98 -28 -88 -15 -104 -25 -86 -54 7 -11
15 -40 18 -64 5 -31 11 -43 19 -39 7 2 15 -4 18 -14 4 -17 5 -17 6 0 0 10 -5
20 -13 23 -14 5 -14 32 -1 99 4 21 47 39 124 51 44 7 71 -6 71 -35 0 -10 7
-26 16 -37 8 -10 13 -12 9 -4 -4 10 -2 9 8 -2 8 -10 20 -18 27 -18 7 0 10 -8
7 -20 -3 -11 -2 -20 3 -20 4 0 10 -15 13 -32 4 -18 16 -73 27 -122 23 -102 24
-120 10 -111 -6 4 -8 10 -5 15 16 26 -27 53 -51 31 -14 -14 -161 -51 -177 -45
-8 3 -20 15 -26 27 -31 59 20 -237 51 -300 12 -25 28 -31 28 -10 0 6 8 22 18
35 l18 23 -4 -35 c-3 -29 -1 -36 13 -36 15 0 17 7 11 50 -5 39 -3 54 9 66 8 8
19 12 25 9 5 -3 10 -3 10 2 0 4 12 9 26 9 30 2 27 -2 -18 -24 -31 -16 -33 -20
-30 -62 2 -25 6 -47 8 -49 2 -2 14 3 27 12 13 8 34 17 48 19 13 2 23 9 22 15
-2 8 9 10 32 6 27 -4 43 0 70 18 41 28 44 38 11 32 -16 -3 -23 -10 -19 -19 8
-21 -7 -17 -27 9 -17 21 -17 23 -2 41 9 11 11 16 5 12 -9 -5 -13 1 -13 18 0
14 -18 103 -41 198 -22 95 -47 215 -54 266 -7 52 -15 95 -17 97 -1 1 -26 5
-54 7 -34 3 -57 0 -72 -10z m215 -534 c-3 -7 -5 -2 -5 12 0 14 2 19 5 13 2 -7
2 -19 0 -25z m10 -40 c-3 -8 -6 -5 -6 6 -1 11 2 17 5 13 3 -3 4 -12 1 -19z
m-43 -63 c-10 -8 -31 -15 -46 -15 -20 0 -28 -5 -28 -17 0 -15 -2 -15 -9 -4
-15 23 -1 41 33 41 17 0 38 4 46 10 22 14 26 2 4 -15z m46 -15 c0 -5 -4 -10
-10 -10 -5 0 -10 5 -10 10 0 6 5 10 10 10 6 0 10 -4 10 -10z"/>
<path d="M1295 3080 c3 -5 10 -10 16 -10 5 0 9 5 9 10 0 6 -7 10 -16 10 -8 0
-12 -4 -9 -10z"/>
<path d="M1403 3003 c-7 -2 -13 -11 -13 -20 0 -21 44 -13 48 10 3 17 -10 21
-35 10z"/>
<path d="M151 2913 c-1 -17 16 -25 25 -12 4 7 3 9 -4 5 -5 -3 -13 0 -15 6 -4
9 -6 10 -6 1z"/>
<path d="M182 2850 c0 -14 2 -19 5 -12 2 6 2 18 0 25 -3 6 -5 1 -5 -13z"/>
<path d="M441 2834 c0 -11 3 -14 6 -6 3 7 2 16 -1 19 -3 4 -6 -2 -5 -13z"/>
<path d="M1145 2730 c-9 -15 4 -50 19 -50 9 0 12 9 8 25 -5 29 -18 40 -27 25z"/>
<path d="M1040 2680 c-12 -8 -9 -10 12 -10 15 0 30 5 33 10 8 13 -25 13 -45 0z"/>
<path d="M983 2663 c9 -2 23 -2 30 0 6 3 -1 5 -18 5 -16 0 -22 -2 -12 -5z"/>
<path d="M777 2619 c-9 -6 -21 -7 -27 -4 -5 3 -18 -3 -30 -15 -24 -24 -10 -25
49 -1 24 10 40 20 35 24 -5 3 -17 1 -27 -4z"/>
<path d="M1355 2100 c3 -5 16 -10 28 -9 21 0 21 1 2 9 -28 12 -37 12 -30 0z"/>
<path d="M1548 1543 c7 -3 16 -2 19 1 4 3 -2 6 -13 5 -11 0 -14 -3 -6 -6z"/>
<path d="M1538 1373 c7 -3 16 -2 19 1 4 3 -2 6 -13 5 -11 0 -14 -3 -6 -6z"/>
<path d="M1755 900 c-3 -5 -1 -10 4 -10 6 0 11 5 11 10 0 6 -2 10 -4 10 -3 0
-8 -4 -11 -10z"/>
<path d="M1690 600 c0 -5 17 -10 38 -9 30 0 33 2 17 9 -28 12 -55 12 -55 0z"/>
<path d="M1680 570 c0 -5 5 -10 10 -10 6 0 10 5 10 10 0 6 -4 10 -10 10 -5 0
-10 -4 -10 -10z"/>
<path d="M1700 539 c0 -5 5 -7 10 -4 6 3 10 8 10 11 0 2 -4 4 -10 4 -5 0 -10
-5 -10 -11z"/>
<path d="M1788 403 c7 -3 16 -2 19 1 4 3 -2 6 -13 5 -11 0 -14 -3 -6 -6z"/>
</g>
</svg>
